<svg width="20" height="20" xmlns="http://www.w3.org/2000/svg" viewBox="0 0 19 13"><path d="M3.5.5h12a3 3 0 0 1 3 3v6a3 3 0 0 1-3 3h-12a3 3 0 0 1-3-3v-6a3 3 0 0 1 3-3Z" fill="#3d51af" stroke="#e6e6e6"/><path fill="#fff" fill-rule="evenodd" d="M9.5 9.5a3 3 0 1 0 0-6 3 3 0 0 0 0 6Zm0 1a4 4 0 1 0 0-8 4 4 0 0 0 0 8Z"/><path fill="#fff" fill-rule="evenodd" d="M6.52 6.12c.97.26 1.97.39 2.98.38 1.05 0 1.96-.1 2.59-.26l.39-.12a3 3 0 0 0-5.96 0Zm6.2-.12-.02.02.02-.02Zm-6.41.02L6.28 6l.03.02Zm-.81.48a4 4 0 1 1 8 0c0 .55-1.79 1-4 1s-4-.45-4-1Z"/><path fill="#fff" fill-rule="evenodd" d="M10.02 8.88c.28-.56.48-1.4.48-2.38s-.2-1.82-.48-2.38c-.09-.2-.23-.39-.39-.54L9.5 3.5l-.13.08c-.11.09-.25.26-.39.54-.34.75-.5 1.56-.48 2.38 0 .98.2 1.82.48 2.38.14.28.28.45.39.54l.13.08h.02l.11-.08c.11-.09.25-.26.39-.54ZM9.5 10.5c1.1 0 2-1.79 2-4s-.9-4-2-4-2 1.79-2 4 .9 4 2 4Z"/></svg>