<svg xmlns="http://www.w3.org/2000/svg" width="16" height="16" color="#b3b3b3" fill="none" viewBox="0 0 16 16"><path fill="currentColor" fill-rule="evenodd" d="M9.2 12.35c-.48 1-.94 1.15-1.2 1.15s-.72-.15-1.2-1.15a9.1 9.1 0 0 1-.76-3.2 20.77 20.77 0 0 0 3.92 0 9.07 9.07 0 0 1-.75 3.2Zm.8-4.7a19.14 19.14 0 0 1-4 0c.04-1.7.35-3.08.8-4 .48-1 .95-1.15 1.2-1.15s.72.15 1.2 1.15c.45.92.76 2.3.8 4Zm1.47 1.3a11.14 11.14 0 0 1-.83 3.88 5.5 5.5 0 0 0 2.84-4.37c-.62.2-1.3.37-2 .5Zm1.92-2.04c-.57.2-1.2.38-1.9.51a11.54 11.54 0 0 0-.85-4.25 5.5 5.5 0 0 1 2.75 3.74Zm-8.88.51c.06-1.67.35-3.14.85-4.25a5.5 5.5 0 0 0-2.75 3.74c.57.2 1.2.38 1.9.51ZM2.52 8.46a5.5 5.5 0 0 0 2.84 4.37 11.19 11.19 0 0 1-.83-3.88 15.54 15.54 0 0 1-2.01-.49ZM15 8A7 7 0 1 0 1 8a7 7 0 0 0 14 0Z" clip-rule="evenodd"/></svg>