<svg xmlns="http://www.w3.org/2000/svg" width="163" height="32" fill="none" viewBox="0 0 163 32">
  <g clip-path="url(#prefix__a)">
    <path fill="#027bfe"
      d="M16 0C7.173 0 0 7.173 0 16s7.173 16 16 16 16-7.173 16-16S24.827 0 16 0M8.613 3.947c6.827.08 12.187 3.146 14.214 7.76C20 9.947 15.04 9.013 8.347 9.013c-1.654 0-3.254.054-4.72.187a14.1 14.1 0 0 1 4.986-5.253m-5.893 7.2c1.707-.187 3.6-.267 5.627-.267 9.013 0 15.386 1.893 15.386 5.12s-6.346 5.12-15.386 5.12a60 60 0 0 1-5.627-.267A14 14 0 0 1 1.867 16c0-1.707.293-3.333.853-4.853M3.627 22.8c.186 0 3.12.187 4.72.187 6.693 0 11.653-.96 14.48-2.694-2.027 4.614-7.387 7.68-14.214 7.76A14.1 14.1 0 0 1 3.627 22.8M16 30.133a13.7 13.7 0 0 1-3.813-.533C20.213 28.293 25.6 22.907 25.6 16S20.213 3.707 12.187 2.4A14 14 0 0 1 16 1.867c7.787 0 14.133 6.346 14.133 14.133S23.787 30.133 16 30.133" />
  </g>
  <path fill="currentColor"
    d="M46.18 22.416q6.03 0 6.03-6.514v-.227q0-3.214-1.48-4.807-1.45-1.622-4.607-1.622h-1.82v13.17zM39.694 5.662h6.656q5.205 0 8.022 2.674 2.645 2.645 2.645 7.282v.227q0 4.694-2.674 7.367Q51.556 26 46.322 26h-6.628zm23.788 20.65q-2.162 0-3.499-1.052-1.479-1.166-1.479-3.384 0-2.475 2.162-3.698 1.935-1.08 5.575-1.081h1.678V16.5q0-1.423-.54-2.077-.513-.654-1.878-.654-2.19 0-2.531 2.105h-3.897q.171-2.503 2.076-3.869 1.736-1.223 4.608-1.223 2.874 0 4.494 1.252 1.736 1.365 1.736 4.266V26h-4.011v-1.792q-1.507 2.105-4.494 2.105Zm1.223-2.872q1.394 0 2.304-.711t.91-1.934v-1.252h-1.593q-1.877 0-2.844.484-.939.483-.939 1.621 0 1.792 2.162 1.792m15.734 2.844q-4.806 0-4.807-4.693v-7.538h-1.905v-2.93h1.905V7.91h4.096v3.215h3.13v2.93h-3.13v7.167q0 1.764 1.65 1.764.91 0 1.565-.285v3.186q-1.138.399-2.504.398Zm8.92.029q-2.162 0-3.5-1.053-1.478-1.166-1.478-3.384 0-2.475 2.161-3.698 1.935-1.08 5.576-1.081h1.678V16.5q0-1.423-.54-2.077-.513-.654-1.878-.654-2.19 0-2.532 2.105H84.95q.17-2.503 2.077-3.869 1.736-1.223 4.608-1.223 2.873 0 4.494 1.252 1.735 1.365 1.735 4.266V26h-4.01v-1.792q-1.507 2.105-4.495 2.105m1.223-2.873q1.394 0 2.303-.711.91-.711.91-1.934v-1.252h-1.592q-1.878 0-2.845.484-.938.483-.938 1.621 0 1.792 2.162 1.792m10.671-17.778h4.608v16.726h8.277V26h-12.885zm21.632 20.65q-3.47 0-5.547-2.019-2.218-2.048-2.218-5.546v-.228q0-3.47 2.218-5.632 2.162-2.105 5.433-2.105 3.1 0 5.063 1.792 2.19 1.991 2.191 5.775v1.137h-10.724q.085 1.878 1.024 2.902.967.995 2.674.995 2.674 0 3.1-2.076h3.897q-.37 2.418-2.219 3.726-1.82 1.28-4.892 1.28Zm3.129-9.357q-.2-3.328-3.243-3.328-1.394 0-2.304.881-.881.854-1.109 2.447zm6.19-5.831h4.125v2.36q1.394-2.702 4.835-2.702 2.248 0 3.613 1.366 1.394 1.479 1.394 4.38V26h-4.125v-8.875q0-1.536-.626-2.247-.626-.74-1.991-.74-1.393 0-2.247.854-.853.825-.853 2.418V26h-4.125zm22.385 15.189q-3.015 0-4.694-1.28-1.677-1.28-1.792-3.698h3.84q.171 1.08.74 1.593t1.877.512q2.333 0 2.333-1.621 0-.768-.683-1.138-.683-.398-2.332-.626-3.015-.484-4.21-1.45-1.28-.996-1.28-3.186c0-2.19.607-2.627 1.82-3.499q1.565-1.137 4.068-1.138 2.588 0 4.181 1.024 1.678 1.138 1.963 3.584h-3.783q-.171-.938-.711-1.365-.541-.427-1.622-.427-.995 0-1.564.427a1.35 1.35 0 0 0-.541 1.11q0 .71.598 1.052.625.34 2.275.569 2.93.397 4.295 1.337 1.48 1.108 1.48 3.328 0 2.389-1.65 3.64-1.621 1.252-4.608 1.252" />
</svg>